<?xml version="1.0" encoding="utf-8"?>
<svg xmlns="http://www.w3.org/2000/svg" fill="none" class="icon" viewBox="100.598 0 192.897 192.718">
  <g fill-rule="evenodd" clip-rule="evenodd" transform="matrix(1, 0, 0, 1, 101.427744, -0.448571)">
    <g transform="matrix(0.752296, 0, 0, 0.752296, -1.947259, 1.195267)" style="">
      <rect width="256" height="256" rx="60" fill="#242938" x="1.691" y="-0.906" style="stroke-width: 1;"/>
    </g>
  </g>
  <g transform="matrix(1.627653, 0, 0, 1.627653, -202.524417, -51.353764)" style="">
    <path fill="#fff" fill-rule="evenodd" d="M 226.602 73.226 C 224.008 77.158 219.552 79.752 214.489 79.752 C 206.481 79.752 199.989 73.26 199.989 65.252 C 199.989 57.244 206.481 50.752 214.489 50.752 C 219.704 50.752 224.276 53.505 226.831 57.637 L 256.489 57.637 L 270.989 82.752 L 259.442 102.752 L 246.413 102.752 L 244.248 99.002 L 253.989 82.752 L 248.489 73.226 L 226.602 73.226 Z" clip-rule="evenodd"/>
    <path fill="#7F91B6" fill-rule="evenodd" d="M 264.376 108.278 C 266.97 104.346 271.426 101.752 276.489 101.752 C 284.497 101.752 290.989 108.244 290.989 116.252 C 290.989 124.26 284.497 130.752 276.489 130.752 C 271.274 130.752 266.702 127.999 264.147 123.867 L 234.489 123.867 L 219.989 98.752 L 231.536 78.752 L 244.565 78.752 L 246.73 82.502 L 236.989 98.752 L 242.489 108.278 L 264.376 108.278 Z" clip-rule="evenodd"/>
  </g>
</svg>