<?xml version="1.0" encoding="utf-8"?>
<svg xmlns="http://www.w3.org/2000/svg" width="2500" height="2500" viewBox="-39.751 -32.652 260.901 258.534">
  <g fill-rule="evenodd" clip-rule="evenodd">
    <g transform="matrix(1.007394, 0, 0, 1.007394, -6.391115, -0.475615)" style="">
      <rect width="256" height="256" rx="60" fill="#242938" x="-31.622" y="-31.622" style="stroke-width: 1;"/>
      <g transform="matrix(7.769735, 0, 0, 7.769735, -1148.57448, -872.181593)" style="">
        <rect x="163.275" y="120.808" class="st1" width="1.572" height="1.412" style="fill: rgb(60, 156, 215); stroke-width: 0.798;"/>
        <rect x="170.328" y="120.808" class="st2" width="1.54" height="1.5" style="fill: rgb(57, 181, 74); stroke-width: 0.798;"/>
        <rect x="165.637" y="126.896" class="st2" width="1.54" height="1.5" style="fill: rgb(57, 181, 74); stroke-width: 0.798;"/>
        <rect x="163.275" y="122.675" class="st2" width="1.572" height="1.5" style="fill: rgb(57, 181, 74); stroke-width: 0.798;"/>
        <path class="st1" d="M 163.275 124.622 L 163.275 126.393 C 163.275 126.808 163.052 127.064 162.677 127.064 C 162.326 127.064 162.07 126.84 162.07 126.385 L 162.07 120.808 L 161.847 120.808 C 160.905 120.808 160.403 121.415 160.403 122.596 L 160.403 126.425 C 160.403 127.862 161.224 128.508 162.581 128.508 C 163.858 128.508 164.855 127.774 164.847 126.393 L 164.847 124.622 L 163.275 124.622 Z" style="fill: rgb(60, 156, 215); stroke-width: 0.798;"/>
        <path class="st3" d="M 157.817 120.808 L 156.82 120.808 C 155.879 120.808 155.376 121.415 155.376 122.596 L 155.376 128.396 L 157.036 128.396 L 157.036 125.707 L 157.77 125.707 C 159.142 125.707 159.724 124.75 159.724 123.162 C 159.724 121.606 159.062 120.808 157.817 120.808 Z M 157.514 124.351 L 157.036 124.351 L 157.036 122.173 L 157.522 122.173 C 157.913 122.173 158.105 122.468 158.105 123.202 C 158.105 123.992 157.897 124.351 157.514 124.351 Z" style="fill: rgb(255, 255, 255); stroke-width: 0.798;"/>
        <path class="st3" d="M 147.589 120.808 L 146.591 120.808 C 145.65 120.808 145.147 121.415 145.147 122.596 L 145.147 128.396 L 146.807 128.396 L 146.807 125.707 L 147.541 125.707 C 148.913 125.707 149.496 124.75 149.496 123.162 C 149.496 121.606 148.833 120.808 147.589 120.808 Z M 147.277 124.351 L 146.799 124.351 L 146.799 122.173 L 147.285 122.173 C 147.676 122.173 147.868 122.468 147.868 123.202 C 147.876 123.992 147.66 124.351 147.277 124.351 Z" style="fill: rgb(255, 255, 255); stroke-width: 0.798;"/>
        <path class="st3" d="M 154.339 120.808 C 153.397 120.808 152.895 121.415 152.895 122.596 L 152.895 123.681 L 152.895 123.832 L 151.714 123.832 L 151.714 123.681 L 151.714 120.808 L 151.498 120.808 C 150.557 120.808 150.054 121.415 150.054 122.596 L 150.054 128.396 L 151.714 128.396 L 151.714 125.484 L 151.714 125.332 L 152.895 125.332 L 152.895 125.484 L 152.895 128.396 L 154.546 128.396 L 154.546 120.816 L 154.339 120.816 L 154.339 120.808 Z" style="fill: rgb(255, 255, 255); stroke-width: 0.798;"/>
        <path class="st1" d="M 175.315 123.92 L 175.315 122.723 L 174.541 122.723 L 174.541 121.439 L 174.055 121.439 C 173.376 121.439 173.009 121.877 173.009 122.723 L 172.507 122.723 L 172.507 123.912 L 173.009 123.912 L 173.009 127.263 C 173.009 128.101 173.608 128.476 174.358 128.476 C 174.653 128.476 175.028 128.42 175.307 128.324 L 175.307 127.104 C 175.188 127.128 175.02 127.136 174.86 127.136 C 174.613 127.136 174.541 127.016 174.541 126.808 L 174.541 123.912 L 175.315 123.912 L 175.315 123.92 Z" style="fill: rgb(60, 156, 215); stroke-width: 0.798;"/>
        <path class="st1" d="M 168.358 122.548 C 167.855 122.548 167.456 122.763 167.177 123.162 L 167.177 122.675 L 166.674 122.675 C 165.996 122.675 165.629 123.114 165.629 123.96 L 165.629 126.449 L 167.169 126.449 L 167.169 124.431 C 167.169 124.088 167.336 123.832 167.592 123.832 C 167.935 123.832 168.007 124.096 168.007 124.335 L 168.007 128.396 L 169.538 128.396 L 169.538 123.76 C 169.554 123.002 169.02 122.548 168.358 122.548 Z" style="fill: rgb(60, 156, 215); stroke-width: 0.798;"/>
        <path class="st1" d="M 171.374 122.723 C 170.695 122.723 170.328 123.162 170.328 124.008 L 170.328 128.388 L 171.868 128.388 L 171.868 122.723 L 171.374 122.723 Z" style="fill: rgb(60, 156, 215); stroke-width: 0.798;"/>
      </g>
    </g>
  </g>
</svg>