<?xml version="1.0" encoding="utf-8"?>
<svg xmlns="http://www.w3.org/2000/svg" viewBox="0 0 500 500">
  <g transform="matrix(0.009521, 0, 0, -0.009521, 149.376851, 476.027999)" fill="#000000" stroke="none" style="">
    <g fill-rule="evenodd" clip-rule="evenodd" transform="matrix(272.68338, 0, 0, -272.68338, -15505.09984, 50137.754653)" style="">
      <g transform="matrix(0.752296, 0, 0, 0.752296, -1.947259, 1.195267)" style="">
        <rect width="256" height="256" rx="60" fill="#242938" x="1.691" y="-0.906" style="stroke-width: 1;"/>
        <g transform="matrix(1.253309, 0, 0, 1.253309, 8.694915, 0.41103)" style=""/>
      </g>
    </g>
  </g>
  <g id="svg" transform="matrix(1.292854, 0, 0, 1.292854, -781.197949, -91.601594)" style="">
    <g id="svgg" transform="matrix(1, 0, 0, 1, 595.303842, 64.417649)">
      <rect x="119.835" y="61.275" width="165.551" height="175.585" style="fill: rgb(216, 216, 216); stroke: rgb(255, 255, 255);"/>
      <path id="path2" d="M141.289 319.823 L 140.400 320.445 140.400 334.997 C 140.400 350.136,140.726 353.592,142.458 356.806 C 153.080 376.514,181.697 361.202,172.142 340.923 C 168.565 333.331,156.892 329.055,151.210 333.256 C 148.728 335.091,148.402 334.375,148.387 327.073 C 148.378 322.325,148.233 320.413,147.843 319.900 C 147.133 318.964,142.592 318.910,141.289 319.823 M289.236 319.900 L 288.384 320.600 288.492 342.800 L 288.600 365.000 292.200 365.000 L 295.800 365.000 296.000 355.200 C 296.258 342.534,297.425 339.938,302.895 339.859 C 308.735 339.775,309.637 341.733,309.728 354.692 L 309.800 365.000 313.600 365.000 L 317.400 365.000 317.382 354.000 L 317.365 343.000 316.293 340.800 C 312.962 333.963,304.831 330.475,298.559 333.193 C 296.131 334.245,296.000 333.928,296.000 326.986 C 296.000 323.451,295.821 320.412,295.586 319.974 C 295.014 318.905,290.512 318.853,289.236 319.900 M119.564 332.015 C 106.535 333.532,101.103 351.541,110.762 361.200 C 117.213 367.651,129.162 367.404,134.530 360.708 L 135.727 359.217 133.273 356.808 C 130.371 353.959,130.700 354.024,128.645 355.907 C 124.312 359.875,118.503 359.250,121.935 355.184 C 122.577 354.423,124.584 352.000,126.395 349.800 C 128.205 347.600,130.073 345.350,130.546 344.800 C 131.018 344.250,132.123 342.900,133.002 341.801 C 133.881 340.701,134.825 339.563,135.100 339.272 C 136.697 337.582,130.849 332.763,126.532 332.212 C 122.744 331.728,122.168 331.711,119.564 332.015 M192.200 332.330 C 190.579 332.933,188.953 333.814,187.104 335.091 C 184.691 336.757,184.660 336.754,182.496 334.558 C 179.914 331.939,179.981 331.337,180.097 356.071 L 180.200 378.200 183.255 378.316 C 187.670 378.484,187.600 378.608,187.600 370.614 C 187.600 363.469,187.815 362.862,189.867 364.207 C 196.047 368.257,206.243 365.475,210.446 358.592 C 215.854 349.738,212.659 337.888,203.600 333.203 C 201.712 332.227,194.053 331.640,192.200 332.330 M58.985 333.719 C 58.310 336.407,58.996 357.793,59.800 359.142 C 63.800 365.851,71.182 367.863,77.686 364.016 C 79.212 363.114,80.362 363.165,81.600 364.192 C 84.646 366.717,91.396 366.433,95.321 363.614 C 99.665 360.494,100.393 357.665,100.397 343.874 C 100.401 332.457,100.511 332.800,96.848 332.800 C 92.654 332.800,92.804 332.377,92.777 344.231 C 92.751 356.004,92.635 356.561,89.900 358.000 L 88.000 359.000 86.533 358.200 C 83.518 356.557,83.531 356.616,83.579 344.692 C 83.630 332.226,83.844 332.800,79.154 332.800 C 75.778 332.800,76.003 332.008,75.984 343.933 C 75.965 355.292,75.659 356.610,72.695 358.118 C 70.813 359.076,69.703 358.822,67.836 357.008 L 66.400 355.614 66.400 344.621 C 66.400 331.898,66.733 332.800,62.034 332.800 C 59.427 332.800,59.198 332.869,58.985 333.719 M218.814 333.574 C 217.678 335.696,218.550 355.439,219.894 358.021 C 224.026 365.962,235.936 368.745,241.000 362.953 C 242.095 361.701,243.514 361.952,244.673 363.601 C 247.309 367.352,247.387 366.958,247.505 349.292 L 247.609 333.584 246.579 333.192 C 244.837 332.530,240.526 332.694,240.243 333.433 C 240.109 333.781,240.000 337.960,240.000 342.719 C 240.000 352.295,239.706 353.889,237.500 356.255 C 234.402 359.579,229.984 359.309,227.400 355.637 L 226.200 353.933 226.074 343.866 C 225.929 332.209,226.150 332.800,221.938 332.800 C 219.668 332.800,219.161 332.926,218.814 333.574 M262.038 333.252 C 254.929 334.432,251.242 343.645,255.715 349.052 C 258.577 352.512,260.600 353.200,267.912 353.200 C 274.310 353.200,275.200 353.475,275.200 355.455 C 275.200 357.726,274.908 357.790,264.036 357.920 C 252.489 358.057,253.455 357.638,253.679 362.412 L 253.800 365.000 265.200 365.000 L 276.600 365.000 278.000 364.013 C 281.729 361.384,282.575 359.793,282.575 355.400 C 282.575 348.250,279.492 346.059,268.842 345.641 C 262.098 345.377,260.824 344.839,261.447 342.519 C 261.998 340.464,263.125 340.210,272.300 340.072 L 280.800 339.943 280.800 336.618 C 280.800 333.508,280.742 333.278,279.900 333.052 C 278.535 332.686,264.500 332.844,262.038 333.252 M336.400 333.357 C 333.825 333.833,331.549 334.794,330.491 335.852 C 329.546 336.797,328.548 336.457,327.400 334.800 C 326.790 333.920,326.068 333.200,325.795 333.200 C 324.468 333.200,324.390 334.189,324.495 349.647 L 324.600 365.000 328.330 365.000 L 332.060 365.000 332.019 356.400 C 331.951 342.189,333.542 340.000,343.933 340.000 L 346.400 340.000 346.400 336.814 C 346.400 332.566,344.407 331.878,336.400 333.357 M123.767 339.443 C 125.107 339.957,124.336 341.588,120.173 347.052 C 114.890 353.986,115.306 353.599,114.372 352.456 C 110.476 347.688,118.021 337.238,123.767 339.443 M159.525 339.621 C 162.218 340.199,164.940 342.800,165.716 345.537 C 167.905 353.262,161.561 360.528,154.825 358.010 C 143.833 353.899,148.109 337.173,159.525 339.621 M198.910 339.570 C 207.530 341.571,207.601 355.011,199.008 358.031 C 191.170 360.786,184.235 350.704,188.905 343.343 C 191.028 339.996,194.731 338.599,198.910 339.570 " stroke="none" fill-rule="evenodd" style="fill: rgb(255, 255, 255);"/>
      <path id="path0" d="M189.139 21.579 C 187.016 21.758,185.113 22.007,184.910 22.132 C 184.707 22.257,182.934 22.553,180.971 22.790 C 177.226 23.240,172.639 24.133,169.600 25.003 C 168.610 25.287,166.630 25.826,165.200 26.202 C 159.002 27.829,150.830 31.020,143.000 34.869 C 138.656 37.005,138.409 37.140,135.306 39.087 C 134.155 39.809,133.134 40.400,133.038 40.400 C 132.671 40.400,125.982 45.084,121.099 48.760 C 105.640 60.399,89.338 81.537,82.201 99.200 C 81.623 100.630,80.912 102.340,80.622 103.000 C 79.457 105.644,77.416 111.863,75.830 117.600 C 70.623 136.441,70.123 158.407,74.457 178.000 C 74.920 180.090,75.546 182.571,75.849 183.514 C 76.152 184.457,76.400 185.494,76.400 185.819 C 76.400 186.145,76.566 186.723,76.769 187.105 C 76.972 187.487,77.544 189.150,78.039 190.800 C 78.988 193.958,81.740 201.523,82.370 202.705 C 82.574 203.087,83.983 205.920,85.501 209.000 C 88.288 214.651,88.742 215.442,92.737 221.600 C 99.723 232.368,109.467 242.730,121.800 252.505 C 123.308 253.701,128.429 257.394,129.500 258.059 C 131.372 259.220,131.233 260.528,128.856 264.088 C 127.787 265.690,126.224 268.080,125.382 269.400 C 124.540 270.720,120.942 276.210,117.387 281.600 C 113.832 286.990,110.055 292.750,108.994 294.400 C 107.933 296.050,105.205 300.228,102.932 303.685 C 97.784 311.514,97.787 311.484,102.413 310.187 C 103.616 309.849,105.590 309.323,106.800 309.017 C 112.405 307.598,113.950 307.202,116.000 306.658 C 117.210 306.337,120.720 305.412,123.800 304.602 C 126.880 303.792,130.750 302.769,132.400 302.329 C 138.401 300.727,139.840 300.348,142.000 299.800 C 143.210 299.493,145.190 298.979,146.400 298.658 C 147.610 298.337,151.120 297.412,154.200 296.602 C 157.280 295.792,161.150 294.769,162.800 294.329 C 169.007 292.672,170.257 292.344,172.400 291.808 C 173.610 291.506,176.040 290.869,177.800 290.393 C 182.785 289.046,185.217 288.404,187.600 287.808 C 188.810 287.506,191.240 286.869,193.000 286.393 C 198.849 284.812,200.581 284.363,202.837 283.842 C 204.067 283.558,205.270 283.204,205.510 283.056 C 205.750 282.907,206.724 282.628,207.673 282.435 C 208.623 282.241,210.840 281.693,212.600 281.216 C 214.360 280.738,218.860 279.567,222.600 278.613 C 226.340 277.658,230.750 276.486,232.400 276.008 C 234.050 275.529,236.030 274.959,236.800 274.740 C 240.918 273.570,247.469 271.198,251.096 269.564 C 252.028 269.144,252.891 268.800,253.012 268.800 C 254.140 268.800,267.799 261.275,273.553 257.483 C 281.299 252.379,293.218 241.740,298.800 234.947 C 300.010 233.475,301.186 232.074,301.414 231.835 C 308.689 224.190,320.316 203.291,323.799 191.600 C 324.094 190.610,324.717 188.540,325.185 187.000 C 327.232 180.254,328.473 174.435,329.664 166.000 C 330.398 160.800,330.396 139.506,329.661 134.600 C 327.948 123.166,325.332 112.384,322.951 106.940 C 322.648 106.246,322.400 105.504,322.400 105.290 C 322.400 105.077,322.028 104.024,321.574 102.951 C 321.120 101.878,320.597 100.640,320.413 100.200 C 317.662 93.634,310.421 80.640,306.682 75.561 C 305.757 74.304,304.730 72.877,304.400 72.389 C 304.070 71.901,303.619 71.299,303.397 71.051 C 303.176 70.803,302.477 69.970,301.844 69.200 C 295.030 60.907,285.891 52.176,278.400 46.802 C 277.190 45.934,276.020 45.081,275.800 44.905 C 275.417 44.600,273.585 43.399,268.800 40.315 C 263.308 36.775,256.053 33.185,248.000 30.021 C 246.790 29.546,245.440 29.000,245.000 28.807 C 241.494 27.274,229.183 24.028,223.000 23.007 C 221.240 22.716,218.720 22.276,217.400 22.028 C 214.385 21.464,194.303 21.145,189.139 21.579 M204.727 75.329 C 209.718 76.821,212.083 80.658,212.382 87.748 L 212.600 92.897 215.200 93.680 C 216.630 94.111,219.112 95.079,220.715 95.832 C 222.319 96.584,223.705 97.200,223.795 97.200 C 223.886 97.200,224.760 97.740,225.738 98.400 C 226.716 99.060,227.730 99.600,227.992 99.600 C 228.612 99.600,237.600 108.636,237.600 109.260 C 237.600 109.522,237.852 110.021,238.159 110.369 C 242.356 115.106,244.340 123.639,245.191 140.600 C 245.597 148.696,246.430 155.452,247.444 158.875 C 247.750 159.906,248.000 161.028,248.000 161.367 C 248.000 164.886,253.593 176.856,257.139 180.927 C 258.112 182.043,258.350 191.607,257.439 192.996 L 256.784 193.997 202.092 193.985 C 159.261 193.977,147.183 193.866,146.400 193.476 C 145.423 192.989,145.397 192.864,145.288 187.949 L 145.177 182.919 146.902 180.560 C 151.178 174.711,154.167 168.016,155.813 160.600 C 156.105 159.280,156.523 157.390,156.740 156.400 C 157.520 152.847,158.395 144.053,158.770 136.000 C 159.857 112.658,168.700 100.030,188.440 93.631 L 191.080 92.775 191.309 87.636 C 191.735 78.046,197.164 73.067,204.727 75.329 M214.349 201.973 C 216.662 203.211,216.099 209.638,213.305 213.894 C 206.361 224.471,189.854 221.228,187.608 208.844 C 186.865 204.746,187.489 202.329,189.400 201.911 C 191.186 201.520,213.607 201.576,214.349 201.973 " stroke="none" fill-rule="evenodd" fill="#2583d2" style=""/>
    </g>
  </g>
</svg>